<?xml version="1.0" standalone="no"?>
<!DOCTYPE svg PUBLIC "-//W3C//DTD SVG 1.1//EN" "http://www.w3.org/Graphics/SVG/1.1/DTD/svg11.dtd" >
<svg xmlns="http://www.w3.org/2000/svg" xmlns:xlink="http://www.w3.org/1999/xlink" version="1.1">
<metadata></metadata>
<defs>
<font id="header-font" horiz-adv-x="1025" >
<font-face units-per-em="2048" ascent="1638" descent="-410" />
<missing-glyph horiz-adv-x="654" />
<glyph horiz-adv-x="0" />
<glyph unicode="&#xd;" horiz-adv-x="654" />
<glyph unicode=" "  horiz-adv-x="654" />
<glyph unicode="&#x09;" horiz-adv-x="654" />
<glyph unicode="&#xa0;" horiz-adv-x="654" />
<glyph unicode="!" horiz-adv-x="541" d="M97 1341q96 76 170 76q77 0 175 -76q-1 -148 -58 -438t-58 -438h-113q-1 148 -58 438t-58 438zM154 240q63 42 120 42q47 0 115 -42l-20 -240h-192z" />
<glyph unicode="&#x22;" horiz-adv-x="903" d="M122 1388l124 69l123 -72l-79 -511h-88zM533 1388l122 69l126 -72l-84 -511h-84z" />
<glyph unicode="#" horiz-adv-x="1486" d="M149 731q0 42 31.5 74.5t72.5 32.5q0 41 31 72t72 31q43 0 78 -30.5t35 -72.5h133v38h38v82q-42 0 -71.5 33t-29.5 76q0 40 30 69.5t71 32.5q0 42 32.5 74.5t74.5 32.5q41 0 71 -32.5t30 -74.5q41 0 71.5 -30.5t30.5 -71.5q0 -42 -30.5 -75.5t-71.5 -33.5v-82h40v-38h131 q0 43 34.5 73t77.5 30q41 0 72 -31t31 -72q41 0 72 -31.5t31 -73.5q0 -41 -31 -72t-72 -31q0 -40 -31 -70.5t-72 -30.5q-42 0 -77 29.5t-35 71.5h-131v-36h-40v-373q42 0 72 -34.5t30 -77.5q0 -41 -30.5 -72t-71.5 -31q0 -41 -32 -73t-73 -32t-71 31.5t-32 73.5 q-40 0 -70.5 31.5t-30.5 71.5q0 42 29.5 77t71.5 35v373h-38v36h-133q0 -42 -35 -71.5t-78 -29.5q-41 0 -72 30t-31 71q-41 0 -72.5 30.5t-31.5 70.5zM539 728h185v-172l-46 38v-59l46 -36v-194h44v156l47 -34v55l-47 38v208h182v38h-182v45h55v38h-55v54h-44v-54h-57v-38 h57v-45h-185v-38z" />
<glyph unicode="$" horiz-adv-x="956" d="M124 444q0 101 73 209q25 37 150 183q95 112 127 191v238h-184l-16 7q22 19 200 12v190l10 17l9 -17v-190q16 0 68 2q42 2 68 2q42 0 60 -16l-15 -7h-181v-237q32 -77 126 -189q116 -140 144 -185q69 -108 69 -210q0 -93 -59 -158t-152 -65v-130h-267v130 q-101 0 -165.5 61.5t-64.5 161.5z" />
<glyph unicode="%" horiz-adv-x="1468" d="M74 1044q0 129 97 240q89 101 219 146q319 -141 319 -316q0 -129 -98 -239q-88 -99 -219 -146q-318 134 -318 315zM175 0l794 1076q63 85 63 187q0 82 -70 125h367l-790 -1007q-69 -88 -69 -219q0 -113 73 -162h-368zM215 1206q0 -220 303 -353q48 42 48 99 q0 85 -107 205.5t-190 120.5q-54 0 -54 -72zM760 280q0 129 97 240q89 102 219 147q318 -140 318 -317q0 -129 -98 -239q-88 -98 -218 -145q-318 133 -318 314zM901 442q0 -219 303 -352q47 41 47 99q0 85 -107 205t-190 120q-53 0 -53 -72z" />
<glyph unicode="&#x26;" horiz-adv-x="1491" d="M143 731q0 43 29.5 77t71.5 41q6 43 40.5 73t77.5 30q44 0 80.5 -30t46.5 -73h101v39h39v49q-43 6 -71.5 43t-28.5 81q0 43 29 77t71 41q5 42 40 71.5t78 29.5q42 0 75.5 -29.5t40.5 -71.5q42 -5 71.5 -39.5t29.5 -76.5q0 -107 -99 -126v-49h36v-39h105q3 43 42 72 q36 28 80 28q43 0 77.5 -29t40.5 -71q43 -5 72.5 -40t29.5 -78q0 -44 -29.5 -78.5t-72.5 -39.5q-5 -43 -39.5 -73t-77.5 -30q-45 0 -81 29.5t-42 73.5h-105v-36h-36v-337q43 -6 72 -44.5t29 -83.5q0 -42 -29.5 -75.5t-71.5 -40.5q-3 -42 -38 -71.5t-77 -29.5 q-43 0 -77.5 29.5t-43.5 71.5q-41 5 -71 38.5t-30 74.5q0 45 29 83t72 48v337h-39v34h-101q-3 -44 -44 -72q-37 -25 -83 -25q-105 0 -118 99q-42 5 -71.5 40t-29.5 78zM173 735q0 -91 103 -91q-1 -99 86 -99q95 0 95 99h168v-33h36v-401q-43 0 -72 -27.5t-29 -70.5 q0 -40 30 -62.5t71 -22.5q0 -40 22 -69q25 -32 64 -32q87 0 87 101q103 0 103 85q0 43 -30 70.5t-73 27.5v401h38v33h164q0 -41 26 -69t66 -28q88 0 87 97q42 0 72.5 23t30.5 64q0 40 -31 64t-72 24q0 41 -22 71q-25 32 -65 32q-42 0 -69 -30t-27 -73h-163v38h-37v114 q101 0 101 92q0 84 -101 84q0 104 -82 104q-42 0 -66.5 -30.5t-24.5 -73.5q-101 0 -101 -84q0 -41 29.5 -67.5t71.5 -26.5v-112h-38v-38h-164q0 41 -27 71t-68 30q-86 0 -86 -101q-103 0 -103 -84zM518 705v49h202v31h-53v49h53v48h53v-48h54v-49h-54v-31h206v-49h-206v-316 l33 -27v-61l-33 27v-101h-53v144l-31 25v65l31 -27v271h-202z" />
<glyph unicode="'" horiz-adv-x="493" d="M122 1388l124 69l123 -72l-79 -511h-88z" />
<glyph unicode="(" horiz-adv-x="762" d="M130 486q0 334 131 607q97 201 352 513l84 -37q-141 -229 -196 -459q-48 -203 -48 -497q0 -780 244 -958l-44 -64q-279 163 -400 367q-123 208 -123 528z" />
<glyph unicode=")" horiz-adv-x="762" d="M130 -377q141 232 195 460q48 201 48 498q0 781 -243 958l43 65q284 -168 402 -366q122 -205 122 -529q0 -334 -131 -607q-98 -201 -353 -513z" />
<glyph unicode="*" horiz-adv-x="983" d="M130 1070l97 176q49 -15 113 -71q73 -65 106 -82l30 31q-22 46 -31 146.5t-32 146.5l196 -38q-1 -46 -36 -128t-36 -127l32 -19q37 34 130 73t131 75l23 -196q-41 -17 -91 -17q-22 0 -66 5t-66 5t-43 -2l-6 -39q45 -25 111 -101.5t112 -101.5l-179 -82q-33 41 -53 122 q-25 100 -39 129l-40 -6q-9 -50 -62.5 -137t-61.5 -139l-133 149q26 41 102 85q82 46 108 79l-16 32q-15 -2 -34 -2q-38 0 -110.5 20t-110.5 20q-25 0 -45 -6z" />
<glyph unicode="+" horiz-adv-x="1017" d="M70 491v122q74 12 73 12q5 0 314 -19q-19 307 -19 312q0 4 11 72h122q12 -74 12 -72q0 -5 -21 -312q309 19 314 19q-1 0 73 -12v-122q-69 -11 -73 -11q-5 0 -314 21q21 -310 21 -315l-12 -68h-122q-11 63 -11 68t19 315q-309 -21 -314 -21t-73 11z" />
<glyph unicode="," horiz-adv-x="499" d="M118 240q77 42 139 42q54 0 112 -42v-173q0 -150 -36 -221q-39 -78 -162 -153l-49 44q96 91 95 263h-80z" />
<glyph unicode="-" horiz-adv-x="701" d="M133 526v114q331 0 457 23v-158q-74 0 -229 10.5t-228 10.5z" />
<glyph unicode="." horiz-adv-x="499" d="M133 240q63 42 118 42q50 0 115 -42l-19 -240h-191z" />
<glyph unicode="/" horiz-adv-x="891" d="M15 0l514 1032q44 88 44 202q0 124 -51 154h354l-510 -1024q-46 -92 -46 -208q0 -123 49 -156h-354z" />
<glyph unicode="0" d="M82 667q0 197 140 378q117 150 311 267q181 -106 293 -294q115 -191 115 -397q0 -209 -100 -388q-111 -197 -296 -260q-463 255 -463 694zM202 724q0 -183 148 -333q128 -129 319 -193q142 99 142 301q0 165 -143 339q-131 160 -295 229q-171 -130 -171 -343z" />
<glyph unicode="1" d="M194 0v57l179 15v1116q-94 -19 -167 -19l-12 54q214 42 450 194l68 -160l-68 -29v-1144l137 30v-133q-152 19 -587 19z" />
<glyph unicode="2" d="M90 34q161 165 322 381q218 292 218 415q0 194 -192 328q-142 -2 -272 -206l-52 46q203 361 484 419q102 -69 173 -171q82 -117 82 -225q0 -132 -90 -296q-67 -123 -200 -288q-102 -123 -205 -247l166 -2q282 0 364 122l41 -17l-144 -327q-353 70 -539 72 q-61 -23 -105 -61z" />
<glyph unicode="3" d="M34 369h236q0 -131 43 -221q57 -118 173 -118q192 0 192 364q0 276 -126 276q-66 0 -103 -36l-51 52q92 155 227 320q-64 170 -235 211q-170 -59 -209 -236h-84q52 176 138 268q93 99 264 143q287 -57 358 -346q-153 -116 -305 -309q41 10 78 10q341 0 341 -378 q-5 -19 -15 -49q-88 -267 -385 -339q-45 -11 -49 -11q-198 0 -325 102q-130 104 -163 297z" />
<glyph unicode="4" d="M0 366q178 369 318 576q202 299 451 475l65 -51q-65 -69 -65 -151v-693h14q146 0 192 91l42 -19q-70 -137 -72 -228h-176v-290l128 15l-15 -91h-577v57q99 0 221 17v292h-130q-231 0 -346 -84zM156 465q190 57 370 57v537q-116 -111 -213 -279q-42 -75 -157 -315z" />
<glyph unicode="5" d="M34 369h236q0 -134 63 -229q73 -111 200 -110q198 87 198 339q0 83 -113 205q-81 89 -184 163q-137 0 -240 -86l-68 38l91 663q265 -42 461 -42q166 0 215 86l56 -11q-88 -137 -111 -237q-119 -20 -229 -20q-219 0 -339 41l-60 -432q88 54 177 108q104 60 192 73 q392 -151 392 -512q-76 -201 -147 -278q-81 -88 -272 -158q-205 0 -339 99q-143 104 -179 300z" />
<glyph unicode="6" d="M78 501q0 431 592 916l56 -49q-210 -204 -292 -326q-133 -198 -133 -410q0 -144 129 -278q61 -63 248 -198q133 122 133 267q0 100 -112 195q-108 91 -210 91q-42 0 -78 -31l-30 36q146 212 244 212q107 0 220 -158q107 -149 107 -261q0 -146 -146 -327.5t-288 -209.5 q-162 33 -301 200t-139 331z" />
<glyph unicode="7" d="M118 1086l103 331q119 -44 393 -44q266 0 338 48l61 -48l-244 -384q-129 -216 -191 -393q-77 -221 -77 -449q0 -92 40 -189q-124 42 -263 42q117 601 495 1156h-423q-117 0 -144 -103z" />
<glyph unicode="8" d="M72 449q0 167 214 288q-172 106 -172 242q0 145 115 274q108 121 253 164q150 -29 273 -130q140 -116 140 -255q0 -140 -206 -259q132 -82 185 -144q78 -91 78 -216q0 -120 -164 -262q-126 -108 -274 -178q-175 70 -293 180q-149 138 -149 296zM238 537q0 -111 135 -214 q66 -51 233 -136q167 51 167 148q0 107 -172 214l-264 144q-45 -3 -74 -59q-25 -47 -25 -97zM267 1093q0 -80 149 -173q39 -24 222 -114q99 37 99 127q0 166 -341 288q-129 -50 -129 -128z" />
<glyph unicode="9" d="M76 842q0 154 140 331q122 156 275 244q167 -74 304 -230q154 -175 154 -338q0 -157 -40 -266q-44 -119 -261 -342q-162 -157 -324 -313l-57 70q250 256 303 326q154 204 154 405q0 155 -119 280q-85 89 -255 183q-137 -123 -137 -259q0 -95 115 -196q112 -99 209 -99 q40 0 76 19l35 -25q-89 -149 -244 -207q-328 180 -328 417z" />
<glyph unicode=":" horiz-adv-x="499" d="M133 240q63 42 118 42q50 0 115 -42l-19 -240h-191zM133 889q60 40 118 40q53 0 115 -40l-19 -240h-191z" />
<glyph unicode=";" horiz-adv-x="499" d="M118 240q71 42 133 42q52 0 107 -42v-173q0 -148 -34 -219q-37 -79 -156 -155l-46 44q92 96 91 263h-76zM133 889q60 40 118 40q53 0 115 -40l-19 -240h-191z" />
<glyph unicode="&#x3c;" horiz-adv-x="1017" d="M99 596v158l819 381v-167l-653 -298l653 -299v-158z" />
<glyph unicode="=" horiz-adv-x="1017" d="M150 390v149h717v-149h-717zM150 809v149h717v-149h-717z" />
<glyph unicode="&#x3e;" horiz-adv-x="1017" d="M99 213v158l653 299l-653 298v167l819 -381v-158z" />
<glyph unicode="?" horiz-adv-x="878" d="M202 1048q19 102 97 205q89 118 181 118q100 0 209 -128q107 -124 107 -226q0 -149 -81 -252q-25 -33 -150 -138q-81 -67 -81 -132h-65q0 101 82 238t82 219q0 89 -44 172q-53 99 -135 99q-43 0 -83 -68q-29 -50 -43 -107h-76zM368 248v74q0 58 89 58h26q58 0 58 -26 v-135q0 -24 -99 -24q-74 0 -74 53z" />
<glyph unicode="@" horiz-adv-x="2133" d="M221 362q0 95 105 220q129 156 150 205v173h-135l-11 8q21 9 146 5v141l8 14q6 -22 4 -155l76 2q34 0 68 -7l-11 -8h-133v-173q20 -46 148 -204q101 -124 101 -221q0 -66 -44 -114t-110 -48v-97h-196v97q-72 0 -119 45t-47 117zM747 400q0 117 129 271q159 191 185 253 v215h-166l-13 8q18 11 179 7q0 19 -2 64q-1 42 -1 65q0 48 12 60q12 -21 8 -189q95 2 125 2q36 0 52 -9l-13 -8h-164v-213q25 -59 181 -253q124 -154 124 -273q0 -85 -53.5 -142.5t-137.5 -57.5v-116h-240v116q-89 0 -147 56t-58 144zM1398 362q0 95 105 220 q129 156 150 205v173h-137l-9 8q19 9 146 5l-2 80q0 34 8 75q9 -20 6 -155l76 2q34 0 68 -7l-11 -8h-133v-173q20 -47 147 -203q100 -122 100 -222q0 -67 -43 -114.5t-109 -47.5v-97h-196v97q-72 0 -119 45t-47 117z" />
<glyph unicode="A" horiz-adv-x="1251" d="M74 337q0 224 161 485q79 129 314 416q-25 79 -67 150h360q93 -249 187 -691q108 -514 163 -697h-327q-51 132 -99 389q-140 -419 -397 -419q-147 0 -226 114q-69 99 -69 253zM341 423q0 -70 31 -126q38 -68 102 -68q242 0 242 304q0 208 -127 625q-123 -205 -177 -350 q-71 -192 -71 -385z" />
<glyph unicode="B" horiz-adv-x="1238" d="M107 0q26 344 26 762q0 296 87 453q114 206 386 206q165 0 280 -37q173 -56 173 -184q0 -252 -438 -427v-7l4 2q52 -17 204 -95t190 -109q166 -133 166 -314q0 -156 -114 -212q-78 -38 -253 -38h-711zM417 70h177q118 0 172 44q61 49 61 164q0 165 -112 302 q-119 145 -281 146q0 -352 -17 -656zM434 813h15q130 0 213 115q75 103 75 238q0 93 -19 131q-28 55 -112 55q-74 0 -127 -110q-45 -93 -45 -177v-252z" />
<glyph unicode="C" horiz-adv-x="1169" d="M70 762q0 295 134 467q148 192 434 192q217 0 351 -151q129 -145 129 -365h-299l1 108v14q0 325 -186 325q-230 0 -230 -643q0 -117 61.5 -339t63.5 -336h8q179 0 243 179q39 108 39 337h299q0 -247 -204 -420q-194 -164 -445 -164q0 133 -103 253q-96 106 -192 213 q-104 142 -104 330z" />
<glyph unicode="D" horiz-adv-x="1297" d="M120 0q70 330 70 710q0 347 -51 658l114 24q17 -70 69 -124q308 77 503 216q9 -195 111 -399q92 -160 184 -321q97 -179 97 -320q0 -223 -141 -350q-135 -121 -360 -121q-101 0 -298 13q-200 14 -298 14zM362 1198q89 -284 89 -611q0 -318 -24 -507q173 -38 259 -38 q142 0 233 63q104 73 104 209q0 130 -118 283l-230 280q-132 181 -155 363q-70 -34 -158 -42z" />
<glyph unicode="E" horiz-adv-x="1238" d="M76 781q0 283 152 460q160 187 439 187q195 0 326 -104q138 -109 157 -299h-289v11q0 320 -223 320q-248 0 -248 -619v-15q48 66 145 104q87 35 177 35q157 0 281 -58q158 -75 157 -214h-289v6q0 81 -54 132q-54 50 -140 50q-97 0 -156 -25t-121 -97q2 -110 85 -310.5 t85 -310.5h3q142 0 224 107q75 98 74 246h289q-78 -421 -658 -421h-3q1 128 -106 235q-193 195 -199 203q-108 149 -108 377z" />
<glyph unicode="F" horiz-adv-x="1061" d="M107 1388h954q-124 -223 -152 -455h-33q-34 180 -154.5 282.5t-302.5 102.5q11 -211 11 -509q52 20 96 20q132 0 225 -69q102 -76 102 -204h-224q1 75 -30 127q-37 62 -108 62q-29 0 -61 -4v-240q0 -289 27 -501h-295q-33 223 -33 626v68v100q0 402 -22 594z" />
<glyph unicode="G" horiz-adv-x="1177" d="M86 688q0 733 546 733q190 0 332 -165q135 -158 137 -351h-288q-14 182 -36 265q-46 182 -148 182q-212 0 -212 -486q0 -372 69 -580q33 -83 89 -252h8q232 0 232 429q0 40 -2 150h-263l73 145q93 -79 338 -79q10 0 140 3v-132q0 -279 -153.5 -431.5t-433.5 -152.5 q-29 111 -145 208q-156 132 -189 177q-94 128 -94 337z" />
<glyph unicode="H" horiz-adv-x="1297" d="M122 0q30 361 30 935q0 291 -26 453h299q28 -169 28 -575q240 0 393 -76v175q0 279 -23 476h306q18 -188 18 -463q0 -63 -1 -189.5t-1 -189.5q0 -327 28 -546h-295q-32 215 -32 667q-146 76 -393 76q0 -396 -19 -743h-312z" />
<glyph unicode="I" horiz-adv-x="842" d="M11 192l229 197q0 -148 16 -217q29 -127 119 -166q99 84 99 270q0 89 -49.5 260.5t-49.5 261.5v590h316q0 -71 -2.5 -217.5t-2.5 -219.5q0 -219 17 -355q25 -200 25 -207q0 -94 -57 -173q-26 -36 -122 -128q-83 -79 -115 -141q-203 23 -258 47q-107 47 -165 198z" />
<glyph unicode="J" horiz-adv-x="829" d="M-74 0q198 41 291 135q0 -418 149 -487q85 74 85 261q0 52 -23 125l-38 122q-38 149 -38 379v853h317v-735q0 -237 15 -354q28 -218 28 -227q0 -95 -58 -186q-30 -46 -125 -150q-85 -95 -118 -157q-232 25 -331 109q-102 87 -154 312z" />
<glyph unicode="K" horiz-adv-x="1173" d="M122 0q30 361 30 969q0 279 -30 423h308q19 -234 19 -579h4q101 268 164 376q136 232 297 232q107 0 202 -52l-72 -316q-84 40 -183 40q-209 0 -328 -304q272 -103 425 -299q162 -209 162 -490h-347q-1 198 -77 396q-93 241 -247 297q0 -424 -19 -693h-308z" />
<glyph unicode="L" horiz-adv-x="1139" d="M122 1392h308q19 -298 19 -676v-160q0 -295 -15 -486h166q294 0 396 389h6q14 -50 44 -232q23 -144 61 -227h-981q26 163 26 455q0 575 -30 937z" />
<glyph unicode="M" horiz-adv-x="1697" d="M46 154q0 274 123 570q81 194 277 518q-22 77 -61 150h316q110 -284 168 -630q79 232 219 476q-21 82 -60 154h328q86 -245 166 -693q89 -501 146 -699h-312q-53 179 -114 577q-58 380 -122 575q-94 -219 -133 -381q-46 -188 -46 -402q0 -159 65 -369h-271 q-61 184 -125 580q-63 386 -130 578q-160 -343 -160 -745q0 -222 69 -413h-320q-23 84 -23 154z" />
<glyph unicode="N" horiz-adv-x="1297" d="M122 0q30 361 30 935q0 293 -26 457h327q57 -172 168 -345q65 -101 225 -310v175q0 282 -23 480h306q16 -165 16 -647v-172q0 -352 28 -573h-295q-75 406 -211 714q-12 26 -114 234q-69 141 -100 239q0 -840 -19 -1187h-312z" />
<glyph unicode="O" horiz-adv-x="1154" d="M69 621q0 258 136 487q142 237 372 338q68 -95 217 -203q154 -112 203 -176q89 -116 89 -294q0 -261 -135 -487q-140 -234 -372 -339q-68 96 -216 205q-155 113 -204 176q-90 116 -90 293zM282 968q0 -212 75 -349q70 -129 245 -261q94 -71 100 -75q55 -45 87 -89 q87 104 87 233q0 192 -85 335q-70 119 -235 257q-94 78 -101 85q-56 50 -89 96q-84 -88 -84 -232z" />
<glyph unicode="P" horiz-adv-x="1124" d="M122 709q0 286 120 474q141 223 411 223q185 0 268 -28q144 -49 144 -197q0 -171 -238 -358q-162 -128 -393 -236q0 -305 27 -587h-318q-21 331 -21 709zM434 649q315 188 315 490q0 91 -18 133q-28 65 -106 65q-104 0 -155 -170q-36 -119 -36 -257v-261z" />
<glyph unicode="Q" horiz-adv-x="1206" d="M69 648q0 251 153 476q151 221 384 322q61 -91 214 -214q164 -132 217 -199q100 -125 100 -284q0 -286 -196 -519q-174 -208 -459 -327q65 -52 244 -52q102 0 202 61l45 -251q-90 -21 -162 -21q-201 0 -405 272q79 32 156 98q-57 66 -209 187q-142 111 -197 186 q-87 117 -87 265zM282 968q0 -241 173 -445q66 -78 362 -329q111 123 111 233q0 211 -183 435q-99 121 -351 338q-112 -110 -112 -232z" />
<glyph unicode="R" horiz-adv-x="1225" d="M120 0q29 360 29 821q0 619 520 619q411 0 411 -244q0 -146 -199 -284q-110 -76 -329 -173q219 -53 414 -283q198 -234 202 -456h-378v10q0 577 -342 691q0 -426 -23 -701h-305zM448 749q170 105 217 151q99 97 99 237q0 234 -124 234q-192 0 -192 -445v-177z" />
<glyph unicode="S" horiz-adv-x="1185" d="M21 -42q56 362 251 362q70 0 168.5 -127.5t167.5 -127.5q165 0 165 255q0 224 -173 322l-320 128q-173 86 -173 279q0 190 134 287q117 85 315 85q168 0 297 -77q153 -91 153 -247q0 -104 -40 -190l-267 95q32 66 32 139q0 106 -31 152q-39 57 -140 57q-156 0 -156 -285 q0 -224 176 -324q163 -66 326 -133q176 -89 176 -288q0 -381 -448 -381q-76 0 -192 73.5t-173 73.5q-104 0 -189 -196z" />
<glyph unicode="T" horiz-adv-x="1478" d="M11 1392h1456q-101 -214 -153 -459h-6q1 2 2 6q0 18 -62 134q-61 113 -79 133q-105 116 -280 116h-6h-14q13 -218 17 -661q3 -439 17 -661h-328q14 222 17 661q4 443 17 661h-43q-150 0 -262 -123q-96 -107 -134 -266h-6q-52 245 -153 459z" />
<glyph unicode="U" horiz-adv-x="1274" d="M109 659q0 141 22 367q28 287 33 366h324q-6 -64 -45 -369q-30 -225 -30 -370q0 -173 37 -284q46 -136 161 -234q151 64 218 151q-6 194 -6 352v328q0 258 28 426h299q-26 -162 -26 -453q0 -578 30 -939h-312q-5 84 -8 175q-125 -137 -421 -228q-48 60 -143 181.5 t-131 249.5q-30 109 -30 281z" />
<glyph unicode="V" horiz-adv-x="1139" d="M0 1392h339q100 -210 175 -611q84 -445 149 -619q2 139 85 408q82 266 82 409q0 220 -76 413h316q29 -78 29 -154q0 -183 -99 -408q-92 -193 -184 -387q-100 -236 -100 -443h-280q-120 221 -222 694q-104 484 -214 698z" />
<glyph unicode="W" horiz-adv-x="1634" d="M19 1392h326q80 -208 136 -558q73 -456 100 -567q11 93 75 355q54 221 54 357q0 225 -62 413h356q37 -148 102 -582q55 -367 128 -576q10 94 72 371q52 231 52 374q0 184 -78 413h291q23 -80 23 -154q0 -218 -155 -620t-155 -618h-259q-131 292 -227 789 q-147 -339 -147 -789h-283q-84 217 -170 697q-83 466 -179 695z" />
<glyph unicode="X" horiz-adv-x="1232" d="M0 0q144 229 430 670q-257 421 -380 722h342q63 -208 217 -459q342 488 458 488q92 0 165 -59l-85 -261q-61 68 -145 68q-127 0 -351 -308q10 -16 285 -425q172 -256 268 -436h-379q-82 174 -347 594q-241 -429 -242 -739z" />
<glyph unicode="Y" horiz-adv-x="1198" d="M0 1392h364q46 -123 139 -297q149 -279 154 -289q64 207 139 360q125 255 236 255q93 0 166 -59l-86 -261q-61 68 -144 68q-111 0 -250 -483q76 -211 76 -444q0 -155 -17 -242h-337q36 109 36 230q0 193 -93 408q-46 107 -199 374q-134 235 -184 380z" />
<glyph unicode="Z" horiz-adv-x="1139" d="M15 70q448 711 705 1252h-82q-165 0 -274.5 -94t-138.5 -257h-33q0 244 -131 421h987l11 -68q-350 -692 -703 -1254h244q298 0 396 389h6q11 -41 44 -232q24 -142 61 -227h-1073z" />
<glyph unicode="[" horiz-adv-x="680" d="M114 785q0 417 17 712h109q213 0 349 23v-158q-103 0 -212 9q-11 -519 -11 -558q0 -495 19 -906q143 4 221 19v-158q-72 0 -229 10q-152 11 -228 11q-16 67 -21 320q-14 672 -14 676z" />
<glyph unicode="\" horiz-adv-x="891" d="M15 1388h354q-51 -30 -51 -154q0 -114 44 -202l514 -1032h-354q49 33 49 156q0 118 -45 208z" />
<glyph unicode="]" horiz-adv-x="680" d="M74 -74q77 -14 221 -19q19 413 19 906q0 36 -11 558q-108 -9 -212 -9v158q138 -23 458 -23q17 -296 17 -712q0 -10 -14 -675q-1 -81 -2 -161q-3 -93 -19 -160q-76 0 -229 -11q-156 -10 -228 -10v158z" />
<glyph unicode="^" horiz-adv-x="893" d="M65 829l306 558h149l309 -558h-197l-186 361l-176 -361h-205z" />
<glyph unicode="_" horiz-adv-x="952" d="M-11 -261h975v-120h-975v120z" />
<glyph unicode="`" horiz-adv-x="507" d="M34 1632l267 14q0 -427 91 -522l-49 -44q-250 222 -309 552z" />
<glyph unicode="a" horiz-adv-x="1028" d="M63 253q0 156 146 364q67 95 261 312l-43 117h280q81 -192 157 -519q96 -413 132 -527h-274q-47 136 -80 290q-117 -313 -332 -313q-120 0 -186 80q-61 74 -61 196zM278 318q0 -54 28 -98q32 -49 84 -49q206 0 206 240q0 153 -101 458q-121 -151 -165 -253 q-52 -123 -52 -298z" />
<glyph unicode="b" horiz-adv-x="1046" d="M93 139q21 137 21 377v279q0 357 -21 593h263q0 -74 5 -237.5t5 -236.5q112 111 337 172q154 -137 210 -257q58 -123 58 -326q0 -279 -115 -396q-92 -93 -380 -174q-132 106 -383 206zM356 97l133 -97q143 37 194 168q35 89 35 266q0 212 -16 282q-31 138 -153 229 q-122 -49 -183 -113q0 -44 3 -143q2 -92 2 -142q0 -290 -15 -450z" />
<glyph unicode="c" horiz-adv-x="869" d="M57 465q0 200 120 373.5t307 247.5q205 -57 337 -229l-151 -156q-142 217 -297 217q-57 0 -101 -69q-40 -62 -40 -123q0 -152 112 -353q126 -224 265 -224q104 0 157 125l47 -38q-142 -206 -329 -274q-427 181 -427 503z" />
<glyph unicode="d" horiz-adv-x="1046" d="M74 518q0 243 132 381q114 118 363 189q51 -44 119 -82l17 382h247q-22 -149 -22 -409q0 -617 22 -979h-253l-10 107q-121 -123 -302 -172q-171 102 -245 243q-68 133 -68 340zM328 576q0 -483 196 -483q75 0 156 96q0 49 -3 158q-3 103 -3 158q0 269 14 421l-132 95 q-146 -38 -196 -173q-32 -87 -32 -272z" />
<glyph unicode="e" horiz-adv-x="872" d="M57 465q0 200 120 373.5t307 247.5q337 -148 337 -277q0 -68 -166 -253l-230 -238q105 -99 236 -169q71 73 105 125l47 -38q-141 -205 -329 -274q-427 215 -427 503zM232 726q0 -195 149 -364q61 63 121 126q77 89 77 146q0 119 -274 263q-73 -65 -73 -171z" />
<glyph unicode="f" horiz-adv-x="632" d="M13 989v57h170q-4 90 -29 181q80 112 163.5 169t215.5 88q128 -108 172 -198l-240 -115q-37 92 -113 155q-34 -12 -62 -37q86 -141 108 -243q116 0 189 30v-105q-59 8 -179 18q26 -126 26 -408q0 -372 -17 -581h-265q31 280 31 559v430h-170z" />
<glyph unicode="g" horiz-adv-x="1046" d="M74 518q0 269 120 392q99 101 375 178q162 -127 383 -206q-21 -133 -21 -406q0 -226 14 -337q23 -183 23 -190q0 -94 -62 -160q-31 -34 -134 -100q-94 -61 -132 -112h-100q-159 0 -247 34q-125 47 -169 174l249 89q1 -87 65 -158q62 -67 149 -87q114 77 114 186 q0 57 -12 166.5t-13 163.5q-145 -145 -286 -145q-136 0 -233 198q-83 167 -83 320zM328 576q0 -431 196 -431q101 0 130 125q13 54 13 204q0 277 22 450l-133 97q-147 -38 -197 -173q-31 -85 -31 -272z" />
<glyph unicode="h" horiz-adv-x="1057" d="M93 1388h263q0 -76 5 -237.5t5 -236.5q106 105 350 172q94 -118 189 -236q66 -106 66 -300q0 -106 -18 -275q-23 -218 -27 -275h-256l30 278q18 165 18 278q0 262 -169 389q-120 -48 -183 -113q0 -42 3 -143q2 -91 2 -142v-145q0 -247 -22 -402h-252q24 149 24 369v216 q0 490 -28 803z" />
<glyph unicode="i" horiz-adv-x="507" d="M114 394q0 413 17 652h248q-12 -560 -13 -560v3q0 -279 26 -489h-243q-35 115 -35 394zM114 1392q76 31 149 31q59 0 116 -31l-13 -204h-238z" />
<glyph unicode="j" horiz-adv-x="547" d="M-175 -107l236 132q-1 -243 118 -290q71 54 71 196q0 40 -19 95q-17 46 -33 92q-30 106 -30 284v644h251q0 -75 -3.5 -226t-3.5 -226q0 -213 20 -354q0 -3 17 -93q10 -56 10 -94q0 -96 -95 -198q-133 -143 -149 -171q-170 17 -230 43q-97 42 -160 166zM168 1392 q76 31 148 31q59 0 116 -31l-13 -204h-238z" />
<glyph unicode="k" horiz-adv-x="985" d="M103 0q25 275 25 571q0 393 -25 821h259q15 -428 15 -783h4q86 206 141 288q112 170 246 170q91 0 169 -40l-61 -237q-71 29 -152 29q-105 0 -175 -67q-52 -51 -101 -162q221 -72 350 -213q143 -158 143 -377h-292q-1 155 -67 303q-78 175 -205 217q0 -332 -15 -520h-259 z" />
<glyph unicode="l" horiz-adv-x="459" d="M85 385v323q0 398 20 680h247q-12 -558 -13 -558v2v-283q0 -316 27 -549h-244q-37 139 -37 385z" />
<glyph unicode="m" horiz-adv-x="1537" d="M93 1046h257q7 -68 10 -118q99 95 331 160q47 -60 136 -183q127 107 390 183l170 -244q62 -114 62 -294q0 -109 -14 -275q-21 -256 -22 -275h-268q1 16 32 278q19 167 19 278q0 262 -152 387q-95 -42 -177 -116q34 -110 34 -277q0 -269 -17 -550h-269q34 390 34 556 q0 142 -17 210q-26 109 -108 177q-104 -43 -160 -109q0 -72 2 -255q2 -167 2 -255q0 -206 -21 -324h-250q21 126 21 343q0 427 -25 703z" />
<glyph unicode="n" horiz-adv-x="1057" d="M93 1046h259q7 -75 10 -132q105 104 354 172q95 -117 190 -235q65 -100 65 -301q0 -106 -18 -275q-23 -217 -27 -275h-273q4 37 39 277q24 169 24 279q0 264 -167 389q-125 -49 -181 -113q0 -49 2 -187q1 -121 1 -186v-143q0 -192 -22 -316h-252q21 126 21 343 q0 427 -25 703z" />
<glyph unicode="o" horiz-adv-x="958" d="M53 465q0 200 119.5 373.5t305.5 247.5q427 -222 427 -507q0 -199 -119.5 -371t-305.5 -246q-427 212 -427 503zM229 726q0 -183 132 -344q113 -137 296 -233q71 76 71 171q0 182 -132 344q-112 135 -295 233q-72 -64 -72 -171z" />
<glyph unicode="p" horiz-adv-x="926" d="M70 476q0 205 103 373q111 182 299 237q397 -113 397 -610q0 -135 -108 -298q-117 -178 -245 -178q-107 0 -200 114q36 -137 36 -324q0 -174 -177 -297l-30 23q66 162 66 278q0 118 -70.5 341t-70.5 341zM267 589q0 -154 50 -302q67 -199 188 -199q84 0 128 72 q36 59 36 149q0 133 -93 315q-106 206 -224 206q-85 0 -85 -241z" />
<glyph unicode="q" horiz-adv-x="1046" d="M74 518q0 269 120 392q99 101 375 178q167 -129 383 -206q-21 -135 -21 -482v-297q0 -250 -13 -471h-261q19 333 19 467q-149 -150 -286 -150q-130 0 -231 226q-85 191 -85 343zM328 576q0 -483 196 -483q152 0 152 185q0 33 -4.5 98t-4.5 98q0 277 22 450l-133 97 q-146 -37 -196 -173q-32 -87 -32 -272z" />
<glyph unicode="r" horiz-adv-x="829" d="M93 1046h259q8 -80 10 -132q119 130 272 172q127 -107 172 -198l-240 -115q-32 79 -99 134q-55 -20 -99 -75l-1 -354q0 -272 22 -478h-256q-10 150 -17 523q-6 334 -23 523z" />
<glyph unicode="s" horiz-adv-x="994" d="M17 -30q50 270 212 270q61 0 141 -95t140 -95q139 0 139 190q0 168 -145 241q-134 49 -269 97q-145 64 -145 209q0 148 120 220q99 60 257 60q138 0 245 -53q134 -67 134 -191q0 -75 -35 -143l-224 70q28 50 28 105q0 84 -30 119q-33 39 -115 39q-131 0 -131 -215 q0 -167 148 -241l274 -98q148 -67 148 -219q0 -286 -376 -286q-62 0 -160 55.5t-148 55.5q-85 0 -158 -149z" />
<glyph unicode="t" horiz-adv-x="632" d="M40 989v57h135q3 160 15 342h248q0 -24 -11 -342q89 0 160 30v-105q-53 8 -160 18q-2 -58 -2 -112v-359q0 -300 26 -518h-243q-41 139 -41 531q0 96 3 253q3 162 3 205h-133z" />
<glyph unicode="u" horiz-adv-x="1061" d="M82 495q0 106 19 276q23 216 27 275h272q-4 -36 -39 -278q-24 -169 -24 -279q0 -262 168 -388q131 51 186 112q0 65 -5 224q-4 147 -4 224q0 254 23 385h251q-21 -126 -21 -343q0 -427 25 -703h-261q-7 72 -8 131q-104 -103 -354 -171l-190 234q-65 100 -65 301z" />
<glyph unicode="v" horiz-adv-x="954" d="M2 1046h284q83 -156 147 -458q72 -337 125 -466q2 105 71.5 305t69.5 308q0 166 -65 311h267q25 -63 25 -117q0 -141 -83 -306q-78 -142 -155 -285q-84 -175 -84 -338h-236q-99 163 -186 522q-88 365 -180 524z" />
<glyph unicode="w" horiz-adv-x="1377" d="M11 1046h282q67 -155 114 -419q61 -343 84 -427q9 70 63 266q46 166 46 269q0 170 -51 311h289q31 -109 91 -438q50 -276 111 -433q9 70 61 279q44 173 44 281q0 142 -67 311h246q19 -59 19 -117q0 -159 -130.5 -452.5t-130.5 -476.5h-217q-109 217 -191 590 q-124 -253 -124 -590h-238q-70 161 -146 524q-74 351 -155 522z" />
<glyph unicode="x" horiz-adv-x="1034" d="M0 0q155 218 362 503q-212 309 -320 543h288q57 -164 182 -345q286 366 383 366q78 0 139 -46l-70 -194q-52 49 -122 49q-108 0 -295 -230q120 -159 241 -317q137 -185 223 -329h-318q-69 128 -291 446q-203 -320 -204 -555z" />
<glyph unicode="y" horiz-adv-x="1040" d="M34 1046h296q173 -539 173 -964h30q34 316 108 570q121 415 296 415q81 0 156 -42l-61 -236q-59 30 -123 30q-148 0 -235 -289q-65 -216 -65 -416q0 -324 117 -571l-223 -50q0 295 26 549h-251q0 448 -244 1004z" />
<glyph unicode="z" horiz-adv-x="956" d="M13 53q383 545 593 937h-71q-133 0 -224 -66q-97 -69 -122 -196h-27q0 183 -111 316h829l9 -52q-297 -523 -590 -939h206q249 0 331 292h6q9 -32 36 -175q21 -107 51 -170h-900z" />
<glyph unicode="{" horiz-adv-x="634" d="M29 419v149q162 -2 206 137q19 62 19 273q0 220 59 307q73 109 283 109v-148q-160 4 -186 -151q-8 -162 -17 -325q-28 -203 -189 -277q127 -52 173 -165q32 -80 32 -232v-61q-1 -40 -1 -60q0 -250 188 -236v-139h-47q-239 0 -282 213q-11 198 -21 396q-25 212 -217 210z " />
<glyph unicode="|" horiz-adv-x="1230" d="M147 360q0 30 61 117q81 117 82 119q38 68 67 188q38 156 51 193q55 155 224 166q-7 12 -7 26q0 26 22.5 43.5t49.5 17.5q26 0 49 -17.5t23 -43.5q0 -22 -19 -41q66 -2 132 -48q72 -50 76 -112q-2 29 -2 -195q0 -236 72 -350q58 -92 58 -116q0 -90 -170 -137 q-120 -33 -246 -33q-150 0 -309 48q-214 64 -214 175zM171 -57l187 227l4 -2l-149 -259zM204 343q0 -92 189 -141q133 -34 266 -34q92 0 219 27q168 36 168 91q0 61 -159 98q-117 26 -213 27l-13 -19q1 -20 15.5 -57.5t14.5 -58.5q0 -32 -25 -55t-57 -23q-36 0 -65.5 26 t-29.5 62q0 20 35.5 59t35.5 51q0 15 -65 15q-316 0 -316 -68zM221 427q136 49 320 49q205 0 465 -65q-19 32 -80 73q-48 31 -96 61q-106 72 -213 72q-104 0 -216 -56q-103 -52 -180 -134zM318 594q154 38 278 38q197 0 360 -87l-7 42q-178 89 -362 89q-119 0 -256 -40z M328 -210l114 300l4 -2l-69 -324zM432 998q13 -4 29 -9q25 0 75 6.5t75 6.5q160 0 332 -63q-1 55 -143 85q-98 20 -192 20q-170 0 -176 -46zM451 697q60 4 94 4q123 0 263 -31q0 2 7 271q-51 46 -221 46q-62 0 -89.5 -18.5t-41.5 -126.5q-6 -72 -12 -145zM545 1061l11 -6 h166q55 0 55 12q0 15 -55 29q-46 12 -69 12q-108 0 -108 -47zM598 236l23 -11q48 0 48 51q0 20 -14.5 55.5t-14.5 55.5q3 10 8 24h-25l-21 -53q0 -11 6.5 -32.5t6.5 -32.5q0 -34 -17 -57zM606 74h2l41 -230l-32 -17zM769 82l4 2l115 -301l-52 -25z" />
<glyph unicode="}" horiz-adv-x="634" d="M38 -261h10q108 -2 149 73q31 54 31 166q0 24 -1.5 69t-1.5 65q0 297 205 381q-161 74 -189 277q-9 163 -17 325q-26 155 -186 151v148h17q209 0 280 -134q45 -85 45 -291v-56q0 -173 32 -242q49 -105 194 -103v-149q-162 2 -205 -150q-18 -65 -22 -317q-3 -203 -61 -268 q-52 -58 -129 -75q-44 -9 -151 -9v139z" />
<glyph unicode="~" horiz-adv-x="1112" d="M84 520v187q100 112 251 112q85 0 232.5 -61t222.5 -61q128 0 242 122v-196q-115 -103 -261 -103q-82 0 -228 65.5t-227 65.5q-108 0 -232 -131z" />
<glyph unicode="&#xa4;" horiz-adv-x="1086" d="M74 192l132 130q-67 108 -67 227q0 115 67 220l-132 130l109 114l133 -133q101 69 225 69q126 0 227 -69l131 133l110 -114l-131 -130q67 -101 67 -222q0 -122 -67 -225l131 -130l-110 -112l-131 133q-101 -70 -227 -70q-124 0 -225 70l-133 -133zM293 547 q0 -101 73.5 -174.5t174.5 -73.5t174.5 73.5t73.5 174.5t-73.5 173t-174.5 72t-174.5 -72t-73.5 -173z" />
<glyph unicode="&#xa6;" horiz-adv-x="2434" d="M244 360q0 30 61 117q80 116 82 119q37 68 66 188q36 153 50 193q55 154 225 166q-4 18 -4 26q0 26 22.5 43.5t49.5 17.5q26 0 49.5 -17.5t23.5 -43.5q0 -21 -20 -41q64 -2 132 -48q74 -51 74 -112l-1 -155q-1 -124 13 -209q7 -41 63 -165q53 -117 53 -132 q0 -89 -170 -137q-120 -33 -244 -33q-151 0 -310 47q-215 64 -215 176zM269 -57l188 227l2 -2l-147 -259zM301 343q0 -92 190 -141q133 -34 267 -34q92 0 218 27q167 36 167 91q0 60 -159 98q-117 27 -211 27q-15 0 -15 -19q0 -21 15.5 -58t15.5 -58q0 -32 -25 -55t-57 -23 q-36 0 -65 26t-29 62q0 20 34.5 59t34.5 51q0 15 -65 15q-90 0 -176 -11q-140 -18 -140 -57zM316 427q139 49 324 49q206 0 463 -65q-18 33 -79 74q-48 30 -95 60q-107 72 -213 72q-103 0 -158 -27q-159 -79 -242 -163zM415 594q154 38 278 38q196 0 362 -87l-7 42 q-181 89 -364 89q-120 0 -254 -40zM423 -210l118 300l4 -2l-69 -324zM529 998q13 -4 29 -9q25 0 75.5 6.5t75.5 6.5q162 0 331 -63q-1 56 -140 85q-97 20 -195 20q-170 0 -176 -46zM549 697q60 4 95 4q120 0 263 -31q0 88 7 271q-51 46 -221 46q-62 0 -89.5 -18.5 t-41.5 -126.5q-6 -72 -13 -145zM642 1061l13 -6h164q57 0 57 12q0 14 -56 29q-47 12 -70 12q-108 0 -108 -47zM695 236l23 -11q48 0 48 51q0 19 -13.5 53.5t-13.5 53.5q0 14 6 28h-25q-9 -25 -19 -53q0 -11 5.5 -32.5t5.5 -32.5q0 -34 -17 -57zM701 74h4l42 -230l-31 -17z M870 84l115 -301l-52 -25zM1251 307q0 18 54 133q56 123 63 164q11 65 11 364q0 71 93.5 117t93.5 84q0 26 24 44q21 17 48 17q71 0 71 -63q0 -12 -4 -24q170 -12 224 -166l76 -274q48 -159 132 -250q53 -57 53 -93q0 -111 -215 -175q-161 -48 -310 -48q-127 0 -245 33 q-169 46 -169 137zM1291 286q0 -55 168 -91q125 -27 217 -27q133 0 266 34q189 49 189 141q0 68 -304 68q-75 0 -75 -15q0 -12 34.5 -51t34.5 -59q0 -35 -29 -61.5t-65 -26.5q-32 0 -56.5 23t-24.5 55q0 21 14.5 58.5t15.5 57.5l-15 19q-96 0 -212 -27q-158 -37 -158 -98z M1331 411q257 65 463 65q186 0 322 -49q-75 79 -240 163q-53 27 -158 27q-107 0 -213 -72q-47 -30 -94 -61q-61 -41 -80 -73zM1379 545q165 87 362 87q124 0 278 -38l-15 42q-134 40 -256 40q-183 0 -361 -89zM1394 939q169 63 332 63q99 0 186 -23q-25 65 -163 65 q-108 0 -206 -19q-148 -28 -149 -86zM1449 -217l113 301l4 -2l-65 -324zM1520 941q8 -207 8 -271q172 38 358 27q-10 94 -18 145q-18 116 -34 127q-27 18 -93 18q-170 0 -221 -46zM1558 1067q0 -12 57 -12h164l13 6q0 47 -108 47q-23 0 -70 -12q-56 -15 -56 -29zM1667 276 q0 -51 49 -51l17 13q0 10 -6.5 27.5t-6.5 27.5q0 11 6.5 32.5t6.5 32.5q-8 23 -19 53h-25l6 -24q0 -20 -14 -55.5t-14 -55.5zM1687 -156l42 230h2l-13 -247zM1889 88l4 2l116 -300l-51 -26zM1973 168l4 2l189 -227l-44 -34z" />
<glyph unicode="&#xa7;" horiz-adv-x="1074" d="M122 712q0 238 247 277q-110 35 -153 83q-52 56 -52 164q0 148 120 221q99 59 257 59q136 0 244 -54q135 -68 135 -190q0 -77 -34 -143q-232 77 -267 71q29 55 29 105q0 85 -29 120q-33 38 -116 38q-132 0 -132 -215q0 -168 148 -242l274 -100q148 -67 148 -217 q0 -237 -248 -276q110 -36 154 -83q52 -56 52 -164q0 -148 -120 -221q-99 -59 -257 -59q-136 0 -244 54q-135 68 -135 190q0 76 34 142l225 -70q-29 -55 -29 -105q0 -85 29 -120q33 -38 116 -38q131 0 131 245q0 88 -21 136q-28 65 -164 108q-188 61 -227 84 q-115 68 -115 200zM381 712q0 -71 11 -108q93 -105 151 -105q139 0 139 190q0 69 -12 109q-93 105 -150 105q-139 0 -139 -191z" />
<glyph unicode="&#xa9;" horiz-adv-x="1436" d="M0 701q0 293 213.5 506.5t506.5 213.5q294 0 505 -213t211 -507t-211 -506t-505 -212q-296 0 -508 211t-212 507zM118 701q0 -245 178 -421.5t424 -176.5t422 176t176 422q0 244 -177 422t-421 178q-246 0 -424 -177t-178 -423zM398 724q0 176 80 280q89 114 261 114 q127 0 209 -92q79 -88 79 -217h-179q0 124 -9 166q-22 103 -102 103q-139 0 -139 -387q0 -71 37.5 -204t38.5 -201q112 -3 151 107q24 66 23 203h179q0 -147 -124 -251q-117 -98 -267 -99q0 87 -119 225t-119 253z" />
<glyph unicode="&#xab;" horiz-adv-x="1086" d="M131 503l303 434h141l-247 -434l247 -434h-141zM505 503l299 434h145l-252 -434l252 -434h-145z" />
<glyph unicode="&#xac;" horiz-adv-x="1139" d="M109 661v160h921v-452h-161v292h-760z" />
<glyph unicode="&#xad;" horiz-adv-x="701" d="M133 526v114q331 0 457 23v-158q-74 0 -229 10.5t-228 10.5z" />
<glyph unicode="&#xae;" horiz-adv-x="1436" d="M-166 644q0 360 263 622.5t623 262.5q362 0 622 -261t260 -624t-260 -623.5t-622 -260.5q-365 0 -625.5 260t-260.5 624zM-19 644q0 -302 218 -518.5t521 -216.5t519 216t216 519q0 300 -217.5 518.5t-517.5 218.5q-303 0 -521 -217t-218 -520zM429 244q17 212 17 493 q0 371 312 371q246 0 246 -146q0 -136 -316 -274q132 -32 249.5 -171t119.5 -273h-227q2 354 -205 421q0 -258 -14 -421h-182zM625 693q99 61 130 91q60 60 60 142q0 141 -74 141q-116 0 -116 -267v-107z" />
<glyph unicode="&#xb0;" horiz-adv-x="783" d="M74 1135q0 129 97 240q89 102 219 147q319 -141 319 -316q0 -129 -98 -239q-88 -99 -219 -146q-318 133 -318 314zM215 1297q0 -219 303 -352q48 42 48 99q0 85 -107 205t-190 120q-54 0 -54 -72z" />
<glyph unicode="&#xb1;" horiz-adv-x="1139" d="M109 0v160h921v-160h-921zM109 632v158h379v379h163v-379h379v-158h-379v-384h-163v384h-379z" />
<glyph unicode="&#xb5;" horiz-adv-x="1105" d="M152 -389v1400h172v-485q0 -174 33 -260q53 -135 199 -135q163 0 216 147q30 84 30 285v448h169v-1011h-154v120q-85 -143 -257 -143q-145 0 -236 126v-492h-172z" />
<glyph unicode="&#xb6;" horiz-adv-x="1048" d="M-4 994q0 198 128 304q119 98 322 98h603v-166h-137v-1619h-162v1619h-213v-1619h-156v997q-172 8 -277 110q-108 105 -108 276z" />
<glyph unicode="&#xb7;" horiz-adv-x="547" d="M175 590v195h194v-195h-194z" />
<glyph unicode="&#xbb;" horiz-adv-x="1086" d="M137 69l252 434l-252 434h145l297 -434l-297 -434h-145zM509 937h140l303 -434l-303 -434h-139l248 434z" />
<glyph unicode="&#x401;" horiz-adv-x="1238" d="M76 781q0 283 152 460q160 187 439 187q195 0 326 -104q138 -109 157 -299h-289q4 331 -223 331q-251 0 -248 -634q48 66 145 104q87 35 177 35q157 0 281 -58q158 -75 157 -214h-289q2 85 -54 138q-54 50 -140 50q-97 0 -156 -25t-121 -97q2 -110 85 -310.5t85 -310.5 q144 -1 227 107q75 98 74 246h289q-78 -422 -661 -421q1 128 -106 235q-193 195 -199 203q-108 149 -108 377zM368 1741q63 36 116 36q45 0 108 -36l-17 -217h-183zM731 1741q60 36 113 36q44 0 112 -36l-21 -217h-183z" />
<glyph unicode="&#x410;" horiz-adv-x="1251" d="M74 337q0 224 161 485q79 129 314 416q-25 79 -67 150h360q93 -249 187 -691q108 -514 163 -697h-327q-51 132 -99 389q-140 -419 -397 -419q-147 0 -226 114q-69 99 -69 253zM341 423q0 -70 31 -126q38 -68 102 -68q242 0 242 304q0 208 -127 625q-123 -205 -177 -350 q-71 -192 -71 -385z" />
<glyph unicode="&#x411;" horiz-adv-x="1272" d="M107 0q28 371 28 971q0 263 -28 421h1009q-99 -210 -152 -459h-6q1 2 2 6q0 20 -73 135q-86 136 -93 149q-111 99 -377 99q17 -167 17 -509q207 -2 466 -164q285 -178 285 -371q0 -180 -125 -240q-81 -38 -284 -38h-669zM417 70h177q118 0 172 44q61 49 61 164 q0 370 -393 471q0 -374 -17 -679z" />
<glyph unicode="&#x412;" horiz-adv-x="1238" d="M107 0q26 345 26 762q0 659 473 659q166 0 280 -37q173 -55 173 -184q0 -254 -438 -427v-7l4 2q69 -25 204 -93q144 -74 190 -111q166 -136 166 -314q0 -156 -115 -212q-79 -38 -253 -38h-710zM417 70h177q233 0 233 208q0 166 -112 303q-118 144 -281 145 q0 -351 -17 -656zM434 813h15q129 0 213 115q75 104 75 238q0 93 -19 130q-29 56 -112 56q-75 0 -128 -110q-44 -93 -44 -177v-252z" />
<glyph unicode="&#x413;" horiz-adv-x="1061" d="M107 1392h954q-99 -210 -152 -459h-6q1 3 2 8q0 19 -73 133q-70 110 -93 132q-120 117 -320 116q6 -126 6 -662q0 -406 32 -660h-295q-36 243 -33 696q3 480 -22 696z" />
<glyph unicode="&#x414;" horiz-adv-x="1329" d="M0 70h42q245 0 365 469q82 318 82 672q0 110 -36 183h362q67 -532 125 -763q140 -561 370 -561q-105 -225 -154 -459h-4q-85 239 -212 317q-114 72 -376 72q-206 0 -296 -97q-68 -75 -123 -292h-4l1 1l1 3q-11 101 -57 232q-43 111 -86 223zM326 70h527 q-199 389 -282 964q0 -524 -245 -964zM564 1061l4 -4v4h-4z" />
<glyph unicode="&#x415;" horiz-adv-x="1238" d="M76 781q0 283 152 460q160 187 439 187q195 0 326 -104q138 -109 157 -299h-289q4 331 -223 331q-251 0 -248 -634q48 66 145 104q87 35 177 35q157 0 281 -58q158 -75 157 -214h-289q2 85 -54 138q-54 50 -140 50q-97 0 -156 -25t-121 -97q2 -110 85 -310.5t85 -310.5 q144 -1 227 107q75 98 74 246h289q-78 -422 -661 -421q1 128 -106 235q-193 195 -199 203q-108 149 -108 377z" />
<glyph unicode="&#x416;" horiz-adv-x="1697" d="M34 0q0 281 162 489q153 196 425 300q-119 304 -328 304q-97 0 -183 -40l-72 316q95 52 202 52q159 0 294 -233q65 -114 159 -375h12q0 346 19 579h249q19 -234 19 -579h10q104 277 160 375q134 233 295 233q107 0 200 -52l-72 -316q-82 40 -179 40q-209 0 -332 -304 q274 -104 426 -299q161 -207 161 -490h-345q-1 200 -77 397q-92 240 -247 296q0 -405 21 -693h-327q19 346 19 693q-154 -56 -247 -297q-76 -198 -77 -396h-347z" />
<glyph unicode="&#x417;" horiz-adv-x="1230" d="M0 -46q31 129 84 219q77 128 177 128q53 0 184.5 -91.5t184.5 -91.5q178 0 178 290q0 178 -70 255q-73 81 -250 80v70q289 -3 289 276q0 229 -171 229q-86 0 -141.5 -57.5t-55.5 -144.5q0 -57 18 -118l-265 -84q-32 92 -32 183q0 163 166 252q134 72 313 72 q480 0 480 -309q0 -132 -114 -224q-99 -79 -240 -99v-4q186 0 300 -101q119 -107 119 -290q0 -220 -122.5 -337.5t-342.5 -117.5q-79 0 -216.5 73.5t-215.5 73.5q-126 0 -215 -176z" />
<glyph unicode="&#x418;" horiz-adv-x="1337" d="M122 0q30 361 30 933q0 295 -30 459h301q24 -182 27 -429q-1 73 -1 -430q22 32 237 309q144 187 209 327q5 130 17 223h299q-28 -157 -28 -423q0 -572 30 -969h-308q-17 338 -17 990q-8 -12 -248 -328q-170 -224 -194 -334q-2 -9 -2 -90q0 -106 -14 -238h-308z" />
<glyph unicode="&#x419;" horiz-adv-x="1337" d="M122 0q30 361 30 933q0 295 -30 459h301q24 -182 27 -429q-1 73 -1 -430q22 32 237 309q144 187 209 327q5 130 17 223h299q-28 -157 -28 -423q0 -572 30 -969h-308q-17 338 -17 990q-8 -12 -248 -328q-170 -224 -194 -334q-2 -9 -2 -90q0 -106 -14 -238h-308zM389 1745 l53 42q73 -92 227 -92q166 0 230 92l53 -40q-99 -284 -283 -284q-182 0 -280 282z" />
<glyph unicode="&#x41a;" horiz-adv-x="1173" d="M122 0q30 361 30 969q0 279 -30 423h308q19 -234 19 -579h4q101 268 164 376q136 232 297 232q107 0 202 -52l-72 -316q-84 40 -183 40q-209 0 -328 -304q272 -103 425 -299q162 -209 162 -490h-347q-1 198 -77 396q-93 241 -247 297q0 -424 -19 -693h-308z" />
<glyph unicode="&#x41b;" horiz-adv-x="1137" d="M46 154q0 284 131 573q83 183 299 511q-25 82 -63 154h324q90 -216 178 -697q84 -468 186 -695h-309q-83 197 -149 577q-72 409 -133 581q-196 -374 -196 -745q0 -221 76 -413h-316q-28 77 -28 154z" />
<glyph unicode="&#x41c;" horiz-adv-x="1697" d="M46 154q0 274 123 570q81 194 277 518q-22 77 -61 150h316q110 -284 168 -630q79 232 219 476q-21 82 -60 154h328q86 -245 166 -693q89 -501 146 -699h-312q-53 179 -114 577q-58 380 -122 575q-94 -219 -133 -381q-46 -188 -46 -402q0 -159 65 -369h-271 q-61 184 -125 580q-63 386 -130 578q-160 -343 -160 -745q0 -222 69 -413h-320q-23 84 -23 154z" />
<glyph unicode="&#x41d;" horiz-adv-x="1297" d="M122 0q30 361 30 935q0 291 -26 453h299q28 -169 28 -575q240 0 393 -76v175q0 279 -23 476h306q18 -188 18 -463q0 -63 -1 -189.5t-1 -189.5q0 -327 28 -546h-295q-32 215 -32 667q-146 76 -393 76q0 -396 -19 -743h-312z" />
<glyph unicode="&#x41e;" horiz-adv-x="1154" d="M69 621q0 258 136 487q142 237 372 338q68 -95 217 -203q154 -112 203 -176q89 -116 89 -294q0 -261 -135 -487q-140 -234 -372 -339q-68 96 -216 205q-155 113 -204 176q-90 116 -90 293zM282 968q0 -212 75 -349q70 -129 245 -261q94 -71 100 -75q55 -45 87 -89 q87 104 87 233q0 192 -85 335q-70 119 -235 257q-94 78 -101 85q-56 50 -89 96q-84 -88 -84 -232z" />
<glyph unicode="&#x41f;" horiz-adv-x="1293" d="M122 0q30 361 30 937q0 292 -26 455h1000q15 -154 15 -617v-239q0 -315 28 -536h-293q-35 237 -32 660q4 468 -15 662h-395q15 -190 15 -459v-249q0 -317 -19 -614h-308z" />
<glyph unicode="&#x420;" horiz-adv-x="1124" d="M122 709q0 286 120 474q141 223 411 223q185 0 268 -28q144 -49 144 -197q0 -171 -238 -358q-162 -128 -393 -236q0 -305 27 -587h-318q-21 331 -21 709zM434 649q315 188 315 490q0 91 -18 133q-28 65 -106 65q-104 0 -155 -170q-36 -119 -36 -257v-261z" />
<glyph unicode="&#x421;" horiz-adv-x="1169" d="M70 762q0 295 134 467q148 192 434 192q217 0 351 -151q129 -145 129 -365h-299l1 108q4 339 -186 339q-230 0 -230 -643q0 -117 61.5 -339t63.5 -336q186 -4 251 179q39 108 39 337h299q0 -247 -204 -420q-194 -164 -445 -164q0 133 -103 253q-96 106 -192 213 q-104 142 -104 330z" />
<glyph unicode="&#x422;" horiz-adv-x="1478" d="M11 1392h1456q-101 -214 -153 -459h-6q1 2 2 6q0 18 -62 134q-61 113 -79 133q-107 118 -286 116h-14q13 -218 17 -661q3 -439 17 -661h-328q14 222 17 661q4 443 17 661h-43q-150 0 -262 -123q-96 -107 -134 -266h-6q-52 245 -153 459z" />
<glyph unicode="&#x423;" horiz-adv-x="1276" d="M46 1392h350q210 -717 210 -1322h34q39 435 121 772q142 579 359 579q96 0 185 -52l-73 -316q-68 40 -146 40q-179 0 -281 -394q-74 -286 -74 -545q0 -442 138 -763l-263 -92q0 367 28 701h-301q0 657 -287 1392z" />
<glyph unicode="&#x424;" horiz-adv-x="1785" d="M57 949q0 297 457 297q111 0 240 -61q12 88 12 207h251q-1 -120 15 -207q121 61 236 61q458 0 458 -297q0 -137 -128 -289q-95 -113 -279 -252l-270 -198l8 -210h-329q3 60 7 210l-270 198q-184 140 -279 253q-129 152 -129 288zM381 897q0 -293 358 -607q15 318 15 834 q-52 15 -124 15q-130 0 -189.5 -56.5t-59.5 -185.5zM1032 1124q0 -528 14 -834q356 312 356 607q0 130 -58.5 186t-189.5 56q-72 0 -122 -15z" />
<glyph unicode="&#x425;" horiz-adv-x="1232" d="M0 0q144 229 430 670q-257 421 -380 722h342q63 -208 217 -459q342 488 458 488q92 0 165 -59l-85 -261q-61 68 -145 68q-127 0 -351 -308q10 -16 285 -425q172 -256 268 -436h-379q-82 174 -347 594q-241 -429 -242 -739z" />
<glyph unicode="&#x426;" horiz-adv-x="1293" d="M122 1392h308q19 -297 19 -775q0 -357 -15 -547h395q12 165 11 662q-1 414 36 660h293q-33 -258 -34 -660q-1 -573 -4 -662h162q-98 -208 -152 -459h-6q1 3 2 8q0 23 -55 127q-63 118 -71 140q-97 114 -272 114h-613q26 162 26 455q0 575 -30 937z" />
<glyph unicode="&#x427;" horiz-adv-x="1120" d="M76 949q0 137 46 472l284 -29q-33 -227 -33 -419q0 -66 41 -160q54 -123 62 -154q108 28 191 103q0 391 34 630h305q-40 -248 -40 -463v-475q0 -274 24 -454h-297q-26 253 -26 659q-105 -77 -320 -114q-47 56 -134 120q-74 54 -99 95q-38 65 -38 189z" />
<glyph unicode="&#x428;" horiz-adv-x="1861" d="M122 0q28 160 28 440q0 605 -28 952h308q19 -312 19 -706q0 -375 -19 -616h387q-14 195 -17 603q-3 397 -19 603h297q-13 -198 -16 -603q-4 -399 -18 -603h384q-15 192 -15 509v198q0 367 15 615h309q-27 -371 -27 -937q0 -284 27 -455h-1615z" />
<glyph unicode="&#x429;" horiz-adv-x="1878" d="M122 0q28 158 28 440q0 605 -28 952h308q19 -312 19 -706q0 -376 -19 -616h387q-14 195 -17 603q-3 397 -19 603h297q-13 -198 -16 -603q-3 -399 -18 -603h384q-15 191 -15 616q0 458 15 706h309q-27 -370 -27 -882q0 -279 19 -440h168q-103 -218 -152 -459h-8q1 3 2 8 q0 19 -66 131q-77 133 -83 145q-106 105 -285 105h-1183z" />
<glyph unicode="&#x42a;" horiz-adv-x="1560" d="M17 1392h844q-50 -276 -50 -579q187 -3 433 -175q264 -184 264 -360q0 -181 -117 -240q-77 -38 -279 -38h-630q13 169 20 662q7 415 39 660q-149 0 -261 -124q-98 -108 -133 -265h-6q-42 205 -49 233q-32 132 -75 226zM794 70h175q115 0 152 53q27 40 27 155 q0 193 -75 304q-81 120 -262 167q0 -374 -17 -679z" />
<glyph unicode="&#x42b;" horiz-adv-x="1697" d="M122 0q30 361 30 762v141q0 305 -30 489h308q23 -304 23 -579q196 -4 440 -170q265 -180 265 -365q0 -180 -144 -240q-90 -38 -300 -38h-592zM434 70h175q107 0 151 51q40 48 40 157q0 320 -347 471q0 -339 -19 -679zM1246 705q0 450 22 687h305q-28 -170 -28 -474 q0 -547 28 -918h-308q-19 346 -19 705z" />
<glyph unicode="&#x42c;" horiz-adv-x="1257" d="M122 0q30 360 30 762v145q0 302 -30 485h308q23 -304 23 -579q207 -3 466 -165q285 -178 285 -370q0 -180 -124 -239q-81 -39 -283 -39h-675zM434 70h175q237 0 237 208q0 369 -393 471q0 -339 -19 -679z" />
<glyph unicode="&#x42d;" horiz-adv-x="1238" d="M93 387h292q-1 -148 74 -246q83 -108 227 -107q2 110 83.5 310.5t83.5 310.5q-61 72 -122 98q-56 24 -154 24q-85 0 -139.5 -51.5t-52.5 -136.5h-292q-1 139 159 214q124 58 281 58q88 0 177 -35q98 -39 143 -104v18q0 616 -247 616q-225 0 -221 -331h-292 q28 173 168 288t316 115q279 0 440 -187q152 -176 152 -460q0 -227 -108 -375q-3 -5 -200 -202q-108 -108 -107 -238q-563 0 -661 421z" />
<glyph unicode="&#x42e;" horiz-adv-x="1545" d="M107 0q26 345 26 956q0 278 -26 436h301q19 -227 19 -579q93 -1 167 -59q2 181 141 388q135 202 301 286q60 -79 195 -184t182 -169q80 -108 80 -262q0 -250 -101 -474q-109 -245 -303 -373q-77 106 -227 217q-144 107 -190 175q-79 119 -78 328q-75 56 -167 57 q0 -444 -19 -743h-301zM769 903q0 -187 74 -304q46 -73 177 -179q146 -118 216 -207q55 77 55 261q0 179 -60.5 307t-198.5 244q-47 38 -94 75q-55 45 -85 85q-84 -106 -84 -282z" />
<glyph unicode="&#x42f;" horiz-adv-x="1192" d="M42 0q3 220 203 438q191 210 412 263q-527 236 -527 495q0 225 411 225q272 0 406 -202q114 -171 114 -457q0 -416 28 -762h-304q-23 276 -23 661q-209 -54 -288 -259q-56 -144 -55 -402h-377zM446 1137q0 -141 97 -250q69 -78 219 -167v206q0 137 -37 256 q-52 170 -156 170q-81 0 -108 -73q-15 -43 -15 -142z" />
<glyph unicode="&#x430;" horiz-adv-x="1028" d="M63 253q0 156 146 364q67 95 261 312l-43 117h280q81 -192 157 -519q96 -413 132 -527h-274q-47 136 -80 290q-117 -313 -332 -313q-120 0 -186 80q-61 74 -61 196zM278 318q0 -54 28 -98q32 -49 84 -49q206 0 206 240q0 153 -101 458q-121 -151 -165 -253 q-52 -123 -52 -298z" />
<glyph unicode="&#x431;" horiz-adv-x="1044" d="M93 0q25 270 25 724q0 204 -23 322h846q-86 -170 -126 -345h-6q0 19 -59 105l-76 110q-98 74 -301 74h-15q11 -114 11 -381q167 -1 386 -119q247 -134 247 -284q0 -130 -102 -176q-67 -30 -215 -30h-592zM358 53h145q95 0 139 26q59 35 59 127q0 280 -332 356 q0 -296 -11 -509z" />
<glyph unicode="&#x432;" horiz-adv-x="1044" d="M93 0q25 271 25 724q0 204 -23 322h419q381 0 381 -147q0 -192 -369 -320v-4l3 2q53 -7 163 -71q119 -70 171 -83q139 -103 139 -236q0 -187 -393 -187h-516zM358 53h145q95 0 139 26q59 35 59 127q0 133 -100 236t-232 103q0 -251 -9 -446zM358 990q11 -112 11 -381h12 q105 0 176 81q68 77 68 184q0 116 -164 116h-103z" />
<glyph unicode="&#x433;" horiz-adv-x="891" d="M90 1046h801q-80 -155 -129 -345h-4q1 2 2 6q0 16 -61 99q-58 79 -78 97q-100 87 -267 87l2 -496q2 -295 29 -494h-248q-32 181 -28 523q4 360 -19 523z" />
<glyph unicode="&#x434;" horiz-adv-x="1082" d="M-17 53h34q227 0 321 405q56 243 56 588h273q55 -392 108 -579q118 -414 307 -414q-90 -180 -130 -343h-3q-16 45 -70 112q-62 75 -79 109q-95 69 -282 69q-206 0 -277 -46q-81 -53 -138 -244h-4l2 2q-12 85 -118 341zM255 53h442q-167 295 -240 743q0 -226 -43 -387 q-46 -176 -159 -356z" />
<glyph unicode="&#x435;" horiz-adv-x="872" d="M57 465q0 200 120 373.5t307 247.5q337 -148 337 -277q0 -68 -166 -253l-230 -238q105 -99 236 -169q71 73 105 125l47 -38q-141 -205 -329 -274q-427 215 -427 503zM232 726q0 -195 149 -364q61 63 121 126q77 89 77 146q0 119 -274 263q-73 -65 -73 -171z" />
<glyph unicode="&#x436;" horiz-adv-x="1436" d="M34 0q0 425 495 590q-51 111 -104 161q-70 68 -174 68q-82 0 -152 -30l-61 236q79 42 168 42q136 0 245 -169q49 -75 138 -289h9q0 261 15 437h210q19 -221 19 -437h7q85 209 136 288q109 170 243 170q93 0 170 -42l-61 -236q-68 30 -152 30q-105 0 -175 -67 q-52 -51 -101 -162q493 -164 493 -590h-290q-1 152 -67 305q-79 183 -203 221v-10q0 -317 15 -516h-276q17 226 17 526q-124 -34 -204 -219q-67 -155 -68 -307h-292z" />
<glyph unicode="&#x437;" horiz-adv-x="1006" d="M-17 -34q70 261 219 261q48 0 155.5 -68.5t152.5 -68.5q151 0 151 217q0 139 -66 197q-62 55 -203 54v51q242 -2 242 208q0 172 -143 172q-68 0 -115 -41q-50 -43 -50 -110q0 -40 15 -89l-223 -63q-28 75 -28 137q0 126 147 192q113 50 258 50q402 0 402 -231 q0 -102 -100 -171q-82 -57 -195 -73v-1q147 0 243 -71q107 -80 107 -221q0 -343 -390 -343q-66 0 -182 55.5t-182 55.5q-103 0 -181 -132z" />
<glyph unicode="&#x438;" horiz-adv-x="1101" d="M93 0q25 306 25 571v115q0 221 -25 360h252q24 -166 24 -646q35 48 197 232q123 140 177 246q3 79 15 168h251q-26 -119 -26 -315q0 -436 26 -731h-259q-15 275 -15 743q-101 -118 -202 -237q-121 -142 -167 -260q0 -125 -12 -246h-261z" />
<glyph unicode="&#x439;" horiz-adv-x="1101" d="M93 0q25 306 25 571v115q0 221 -25 360h252q24 -166 24 -646q35 48 197 232q123 140 177 246q3 79 15 168h251q-26 -119 -26 -315q0 -436 26 -731h-259q-15 275 -15 743q-101 -118 -202 -237q-121 -142 -167 -260q0 -125 -12 -246h-261zM312 1341l46 32q42 -101 194 -101 q146 0 195 101l47 -32q-98 -244 -242 -244q-142 0 -240 244z" />
<glyph unicode="&#x43a;" horiz-adv-x="971" d="M93 0q25 306 25 718q0 208 -25 328h261q15 -188 15 -437h4q81 201 139 289q111 169 246 169q91 0 168 -42l-61 -236q-67 30 -151 30q-105 0 -175 -67q-51 -50 -101 -162q491 -165 491 -590h-289q-1 153 -67 307q-79 183 -204 219q0 -320 -15 -526h-261z" />
<glyph unicode="&#x43b;" horiz-adv-x="975" d="M42 114q0 218 115 437q70 133 256 378l-44 117h271q91 -189 155 -517q83 -423 115 -529h-259q-43 133 -101 435q-55 286 -108 434q-172 -286 -172 -559q0 -163 44 -310h-249q-23 58 -23 114z" />
<glyph unicode="&#x43c;" horiz-adv-x="1451" d="M34 190q0 233 339 743l-51 113h263q99 -229 141 -475q75 189 184 358q-18 64 -49 117h274q77 -181 141 -520q72 -378 122 -526h-261q-36 122 -94 434q-51 279 -106 431q-152 -311 -152 -535q0 -154 45 -330h-217q-38 120 -98 437q-53 279 -115 432q-133 -252 -133 -559 q0 -170 38 -310h-252q-19 88 -19 190z" />
<glyph unicode="&#x43d;" horiz-adv-x="1065" d="M93 0q25 305 25 514v250q0 151 -23 282h252q22 -132 22 -437q204 0 332 -55v153q0 189 -19 339h255q15 -105 15 -447v-267q0 -175 25 -332h-249q-27 161 -27 499q-120 59 -332 59q0 -371 -15 -558h-261z" />
<glyph unicode="&#x43e;" horiz-adv-x="958" d="M53 465q0 200 119.5 373.5t305.5 247.5q427 -222 427 -507q0 -199 -119.5 -371t-305.5 -246q-427 212 -427 503zM229 726q0 -183 132 -344q113 -137 296 -233q71 76 71 171q0 182 -132 344q-112 135 -295 233q-72 -64 -72 -171z" />
<glyph unicode="&#x43f;" horiz-adv-x="1061" d="M93 0q25 306 25 571v160q0 183 -23 315h842q12 -111 12 -490v-134q0 -252 24 -422h-247q-30 177 -27 494q3 352 -13 496h-332q15 -175 15 -461q0 -291 -15 -529h-261z" />
<glyph unicode="&#x440;" horiz-adv-x="926" d="M70 476q0 205 103 373q111 182 299 237q397 -113 397 -610q0 -135 -108 -298q-117 -178 -245 -178q-107 0 -200 114q36 -137 36 -324q0 -174 -177 -297l-30 23q66 162 66 278q0 118 -70.5 341t-70.5 341zM267 589q0 -154 50 -302q67 -199 188 -199q84 0 128 72 q36 59 36 149q0 133 -93 315q-106 206 -224 206q-85 0 -85 -241z" />
<glyph unicode="&#x441;" horiz-adv-x="869" d="M57 465q0 200 120 373.5t307 247.5q205 -57 337 -229l-151 -156q-142 217 -297 217q-57 0 -101 -69q-40 -62 -40 -123q0 -152 112 -353q126 -224 265 -224q104 0 157 125l47 -38q-142 -206 -329 -274q-427 181 -427 503z" />
<glyph unicode="&#x442;" horiz-adv-x="1234" d="M6 1046h1222q-88 -167 -127 -345h-4l1 1l1 3q-111 289 -373 285q13 -173 16 -495q2 -340 12 -495h-274q9 144 12 495q2 317 18 495h-38q-121 0 -215 -87q-86 -80 -120 -202h-4q-45 186 -127 345z" />
<glyph unicode="&#x443;" horiz-adv-x="1040" d="M34 1046h296q173 -539 173 -964h30q34 316 108 570q121 415 296 415q81 0 156 -42l-61 -236q-59 30 -123 30q-148 0 -235 -289q-65 -216 -65 -416q0 -324 117 -571l-223 -50q0 295 26 549h-251q0 448 -244 1004z" />
<glyph unicode="&#x444;" horiz-adv-x="1482" d="M42 282q0 198 212 438q180 181 359 362q0 181 -11 310h278q-11 -89 -11 -310q119 -115 237 -230q155 -152 231 -268q103 -158 103 -302q0 -154 -82 -221q-75 -61 -232 -61q-116 0 -269 88q-11 -172 -11 -595h-210v136q0 289 -11 459q-150 -88 -267 -88q-158 0 -233 61 q-83 67 -83 221zM314 373q0 -259 155 -259q89 0 156 61q0 130 -6 405.5t-6 402.5q-140 -159 -207 -279q-92 -167 -92 -331zM857 175q73 -61 156 -61q156 0 156 259q0 275 -300 610q0 -131 -6 -404q-6 -280 -6 -404z" />
<glyph unicode="&#x445;" horiz-adv-x="1034" d="M0 0q155 218 362 503q-212 309 -320 543h288q57 -164 182 -345q286 366 383 366q78 0 139 -46l-70 -194q-52 49 -122 49q-108 0 -295 -230q120 -159 241 -317q137 -185 223 -329h-318q-69 128 -291 446q-203 -320 -204 -555z" />
<glyph unicode="&#x446;" horiz-adv-x="1076" d="M93 1046h261q15 -238 15 -532q0 -282 -15 -461h332q9 118 9 497q0 310 31 496h247q-27 -193 -28 -496q-1 -428 -4 -497h135q-85 -170 -127 -343h-4v6q0 10 -47 99t-58 101q-77 84 -231 84h-514q23 132 23 362q0 372 -25 684z" />
<glyph unicode="&#x447;" horiz-adv-x="937" d="M65 712q0 87 36 334h240q-27 -168 -27 -317q0 -51 33 -120q49 -101 53 -114q91 20 160 74q0 293 29 477h257q-35 -203 -35 -349v-331q0 -221 21 -366h-249q-23 186 -23 495q-85 -57 -267 -86q-35 34 -112 85q-61 40 -83 75q-33 51 -33 143z" />
<glyph unicode="&#x448;" horiz-adv-x="1543" d="M93 0q25 144 25 404q0 320 -25 642h261q12 -209 12 -463v-187q0 -184 -12 -343h324q-13 153 -16 452q-2 305 -14 453h249q-12 -140 -13 -453q-2 -293 -19 -452h327q-15 150 -15 461q0 332 15 532h257q-22 -260 -22 -743q0 -186 22 -303h-1356z" />
<glyph unicode="&#x449;" horiz-adv-x="1558" d="M93 0q25 144 25 404q0 319 -25 642h261q12 -209 12 -555q0 -279 -12 -438h324q-13 153 -16 452q-2 305 -14 453h249q-12 -140 -13 -453q-2 -293 -19 -452h327q-15 150 -15 461q0 333 15 532h257q-21 -248 -21 -547v-202q0 -127 12 -244h141q-86 -169 -126 -343h-6 q5 16 -52 102q-69 103 -71 108q-90 80 -240 80h-993z" />
<glyph unicode="&#x44a;" horiz-adv-x="1291" d="M0 1046h705q-40 -268 -40 -437q185 -52 356 -158q228 -140 228 -278q0 -112 -132 -151q-74 -22 -222 -22h-506q13 140 22 495q7 315 31 495q-121 0 -215 -87q-86 -79 -120 -202h-6q-32 147 -39 176q-26 99 -62 169zM651 53h147q151 0 151 153q0 230 -284 356 q0 -292 -14 -509z" />
<glyph unicode="&#x44b;" horiz-adv-x="1425" d="M103 0q27 329 27 571q0 304 -27 475h259q19 -241 19 -433q181 -34 364 -143q228 -136 228 -283q0 -119 -133 -162q-78 -25 -231 -25h-506zM366 53h148q85 0 120.5 34.5t35.5 118.5q0 130 -86 221q-65 69 -203 135q0 -297 -15 -509zM1048 566q0 315 19 480h255 q-25 -138 -25 -381q0 -361 25 -665h-259q-15 238 -15 566z" />
<glyph unicode="&#x44c;" horiz-adv-x="1009" d="M93 0q25 305 25 571q0 317 -25 475h261q15 -194 15 -433q190 -43 367 -147q232 -136 232 -283q0 -184 -321 -184zM354 53h149q164 0 164 149t-78 237q-70 78 -220 123q0 -332 -15 -509z" />
<glyph unicode="&#x44d;" horiz-adv-x="842" d="M46 149l127 148q128 -171 257 -171q80 0 127 58q45 55 45 136q0 122 -31 225q-183 1 -247 -128l-99 128q62 68 156 68q110 0 171 -15q-108 299 -302 299q-86 0 -153 -88l-36 37q120 171 326 240q194 -79 289 -186q113 -127 113 -319q0 -403 -402 -619q-214 61 -341 187z " />
<glyph unicode="&#x44e;" horiz-adv-x="1341" d="M93 0q29 269 29 701q0 218 -29 345h257q16 -212 16 -437l144 -41q2 145 125 298q114 144 256 204q397 -170 397 -461q0 -192 -92 -363q-94 -177 -255 -273q-433 155 -431 530l-144 47q0 -297 -14 -523l-2 -27h-257zM663 678q0 -359 404 -518q45 61 45 194q0 207 -94 333 q-87 115 -285 201q-70 -78 -70 -210z" />
<glyph unicode="&#x44f;" horiz-adv-x="1002" d="M30 0q2 171 176 336q161 152 339 190q-442 181 -442 371q0 149 289 149h517q-23 -277 -23 -475q0 -314 23 -571h-254q-21 224 -21 495q-170 -40 -237 -186q-51 -111 -50 -309h-317zM369 853q0 -108 85 -192q57 -56 180 -120q0 276 21 451h-160q-126 0 -126 -139z" />
<glyph unicode="&#x451;" horiz-adv-x="884" d="M53 442q0 200 120 372.5t307 246.5q337 -148 337 -276q0 -72 -166 -255q-115 -118 -230 -237q106 -98 236 -167q71 73 105 124l47 -37q-132 -198 -329 -276q-427 215 -427 505zM173 1379q61 38 117 38q47 0 108 -38l-17 -217h-183zM229 701q0 -194 148 -362 q60 63 121 125q77 90 77 145q0 121 -274 265q-72 -67 -72 -173zM537 1379q58 38 112 38q46 0 113 -38l-21 -217h-183z" />
<glyph unicode="&#x2000;" horiz-adv-x="893" />
<glyph unicode="&#x2001;" horiz-adv-x="1787" />
<glyph unicode="&#x2002;" horiz-adv-x="893" />
<glyph unicode="&#x2003;" horiz-adv-x="1787" />
<glyph unicode="&#x2004;" horiz-adv-x="595" />
<glyph unicode="&#x2005;" horiz-adv-x="446" />
<glyph unicode="&#x2006;" horiz-adv-x="297" />
<glyph unicode="&#x2007;" horiz-adv-x="297" />
<glyph unicode="&#x2008;" horiz-adv-x="223" />
<glyph unicode="&#x2009;" horiz-adv-x="357" />
<glyph unicode="&#x200a;" horiz-adv-x="99" />
<glyph unicode="&#x2010;" horiz-adv-x="701" d="M133 526v114q331 0 457 23v-158q-74 0 -229 10.5t-228 10.5z" />
<glyph unicode="&#x2011;" horiz-adv-x="701" d="M133 526v114q331 0 457 23v-158q-74 0 -229 10.5t-228 10.5z" />
<glyph unicode="&#x2012;" horiz-adv-x="701" d="M133 526v114q331 0 457 23v-158q-74 0 -229 10.5t-228 10.5z" />
<glyph unicode="&#x2013;" horiz-adv-x="952" d="M65 510v75q147 -2 343 -2q309 0 480 46v-138q-122 0 -410.5 9.5t-412.5 9.5z" />
<glyph unicode="&#x2014;" horiz-adv-x="1369" d="M70 510v75q513 0 616 2q350 8 613 42v-138q-185 0 -615 9q-434 10 -614 10z" />
<glyph unicode="&#x2018;" horiz-adv-x="434" d="M126 964v156q0 114 28 178q35 82 128 123l42 -69q-103 -40 -105 -190h90v-198h-183z" />
<glyph unicode="&#x2019;" horiz-adv-x="434" d="M107 1021q105 43 104 190h-89v198h183v-156q0 -114 -28 -178q-36 -82 -128 -123z" />
<glyph unicode="&#x201a;" horiz-adv-x="442" d="M110 -190q106 44 105 190h-89v198h183v-156q0 -114 -29 -178q-35 -82 -128 -123z" />
<glyph unicode="&#x201c;" horiz-adv-x="651" d="M80 964v156q0 114 28 178q35 82 128 123l42 -69q-103 -40 -105 -190h90v-198h-183zM373 964v156q0 230 158 301l42 -69q-102 -40 -104 -190h89v-198h-185z" />
<glyph unicode="&#x201d;" horiz-adv-x="651" d="M67 1021q105 43 104 190h-89v198h185v-156q0 -230 -158 -301zM362 1021q106 44 105 190h-90v198h183v-156q0 -114 -28 -178q-36 -82 -128 -123z" />
<glyph unicode="&#x201e;" horiz-adv-x="651" d="M69 -190q103 43 102 190h-87v198h183v-156q0 -114 -29 -178q-35 -80 -128 -123zM362 -190q105 42 107 190h-92v198h185v-156q0 -232 -158 -301z" />
<glyph unicode="&#x2020;" horiz-adv-x="1086" d="M76 825v152h379v387h172v-387h382v-152h-382v-1155h-172v1155h-379z" />
<glyph unicode="&#x2022;" horiz-adv-x="682" d="M99 684q0 98 72 170t170 72q99 0 170.5 -71.5t71.5 -170.5q0 -98 -72 -170t-170 -72t-170 72t-72 170z" />
<glyph unicode="&#x2026;" horiz-adv-x="1950" d="M229 0v194h194v-194h-194zM878 0v194h196v-194h-196zM1528 0v194h196v-194h-196z" />
<glyph unicode="&#x202f;" horiz-adv-x="357" />
<glyph unicode="&#x2030;" horiz-adv-x="2225" d="M74 1044q0 129 97 240q89 101 219 146q319 -141 319 -316q0 -129 -98 -239q-88 -99 -219 -146q-318 134 -318 315zM175 0l794 1076q63 85 63 187q0 82 -70 125h367l-790 -1007q-69 -88 -69 -219q0 -113 73 -162h-368zM215 1206q0 -220 303 -353q48 42 48 99 q0 85 -107 205.5t-190 120.5q-54 0 -54 -72zM760 280q0 129 97 240q89 102 219 147q318 -140 318 -317q0 -129 -98 -239q-88 -98 -218 -145q-318 133 -318 314zM901 442q0 -219 303 -352q47 41 47 99q0 85 -107 205t-190 120q-53 0 -53 -72zM1516 280q0 129 97 240 q89 102 219 147q318 -140 318 -317q0 -129 -98 -239q-88 -98 -218 -145q-318 133 -318 314zM1657 442q0 -219 303 -352q47 41 47 99q0 85 -107 205t-190 120q-53 0 -53 -72z" />
<glyph unicode="&#x2039;" horiz-adv-x="651" d="M88 503l301 434h140l-251 -434l251 -434h-140z" />
<glyph unicode="&#x203a;" horiz-adv-x="651" d="M122 69l251 434l-251 434h141l301 -434l-301 -434h-141z" />
<glyph unicode="&#x205f;" horiz-adv-x="446" />
<glyph unicode="&#x2122;" horiz-adv-x="1838" d="M57 1388h831q-56 -117 -88 -262h-1l1 2v1q0 10 -36 76t-46 77q-63 68 -171 66q8 -126 9.5 -377.5t9.5 -376.5h-187q9 138 11 377q3 272 8 377h-25q-86 0 -149 -70q-53 -60 -75 -152h-4q-28 135 -88 262zM798 682q0 157 71 325q45 107 158 296l-35 85h179q64 -158 96 -360 q45 133 125 271l-34 89h187q51 -140 96 -395q50 -288 83 -399h-179q-31 106 -66 329q-35 219 -68 328q-103 -240 -103 -445q0 -95 39 -212h-155q-35 105 -72 331q-36 221 -74 330q-92 -199 -92 -425q0 -127 40 -236h-183q-13 48 -13 88z" />
<glyph unicode="&#x25fc;" horiz-adv-x="1065" d="M0 0v1065h1065v-1065h-1065z" />
</font>
</defs>
</svg>
